<?xml version="1.0" encoding="utf-8"?>
<!-- Generator: Adobe Illustrator 24.2.3, SVG Export Plug-In . SVG Version: 6.00 Build 0)  -->
<svg version="1.1" id="Layer_1" xmlns="http://www.w3.org/2000/svg" xmlns:xlink="http://www.w3.org/1999/xlink" x="0px" y="0px"
	 viewBox="0 0 306.7 448.5" style="enable-background:new 0 0 306.7 448.5;" xml:space="preserve">
<style type="text/css">
	.st0{fill:#3B3B3B;}
</style>
<g>
	<g>
		<path class="st0" d="M38.7,21.6c-0.5,0-1,0-1.5-0.1c-2.9-0.4-5.5-1.9-7.3-4.2c-1.5-1.9-2.1-4.2-1.8-6.6c0.3-2.4,1.5-4.5,3.4-5.9
			c1.6-1.2,3.5-1.7,5.4-1.4c1.9,0.3,3.7,1.3,4.8,2.8c2,2.6,1.5,6.4-1.1,8.5c-0.4,0.3-1.1,0.3-1.4-0.2c-0.3-0.4-0.3-1.1,0.2-1.4
			c1.8-1.4,2.1-3.9,0.7-5.7c-0.9-1.1-2.1-1.9-3.5-2c-1.4-0.2-2.8,0.2-3.9,1.1c-1.5,1.1-2.4,2.8-2.7,4.6c-0.2,1.8,0.2,3.7,1.4,5.1
			c1.5,1.9,3.6,3.1,5.9,3.4c2.4,0.3,4.7-0.3,6.6-1.8c5-3.9,6-11.1,2.1-16.1C46,1.2,46,0.5,46.5,0.2c0.4-0.3,1.1-0.3,1.4,0.2
			c4.5,5.9,3.4,14.4-2.5,18.9C43.4,20.8,41.1,21.6,38.7,21.6z"/>
	</g>
	<g>
		<path class="st0" d="M276.3,21.6c-2.4,0-4.7-0.8-6.6-2.3c-5.5-4.2-7.1-11.7-3.9-17.3H47.1c-0.5,0-1-0.4-1-1c0-0.5,0.4-1,1-1h222.5
			l-1.2,1.6c-3.8,4.9-2.6,12.2,2.5,16.1c1.9,1.5,4.3,2.1,6.6,1.8c2.4-0.3,4.5-1.5,5.9-3.4c1.1-1.5,1.6-3.3,1.4-5.1
			c-0.2-1.8-1.2-3.5-2.7-4.6c-1.1-0.9-2.5-1.2-3.9-1.1c-1.4,0.2-2.7,0.9-3.5,2c-1.4,1.8-1,4.3,0.7,5.7c0.4,0.3,0.5,1,0.2,1.4
			c-0.3,0.4-1,0.5-1.4,0.2c-2.6-2-3.1-5.8-1.1-8.5c1.2-1.6,2.9-2.5,4.9-2.8c1.9-0.3,3.9,0.3,5.4,1.4c1.9,1.5,3.1,3.6,3.4,5.9
			c0.3,2.4-0.3,4.7-1.8,6.6c-1.8,2.3-4.4,3.8-7.3,4.2C277.2,21.6,276.8,21.6,276.3,21.6z"/>
	</g>
	<g>
		<path class="st0" d="M268,426.9c0.5,0,1,0,1.5,0.1c2.9,0.4,5.5,1.9,7.3,4.2c1.5,1.9,2.1,4.2,1.8,6.6c-0.3,2.4-1.5,4.5-3.4,5.9
			c-1.6,1.2-3.5,1.7-5.4,1.4c-1.9-0.3-3.7-1.3-4.8-2.8c-2-2.6-1.5-6.4,1.1-8.5c0.4-0.3,1.1-0.3,1.4,0.2c0.3,0.4,0.3,1.1-0.2,1.4
			c-1.8,1.4-2.1,3.9-0.8,5.7c0.9,1.1,2.1,1.9,3.5,2c1.4,0.2,2.8-0.2,3.9-1.1c1.5-1.1,2.4-2.8,2.7-4.6c0.2-1.8-0.2-3.7-1.4-5.1
			c-1.5-1.9-3.6-3.1-5.9-3.4c-2.4-0.3-4.7,0.3-6.6,1.8c-5,3.9-6,11.1-2.1,16.1c0.3,0.4,0.3,1.1-0.2,1.4c-0.4,0.3-1.1,0.3-1.4-0.2
			c-4.5-5.9-3.4-14.4,2.5-18.9C263.3,427.7,265.6,426.9,268,426.9z"/>
	</g>
	<g>
		<path class="st0" d="M30.4,426.9c2.4,0,4.7,0.8,6.6,2.3c5.5,4.2,7.1,11.7,3.9,17.3h218.6c0.5,0,1,0.4,1,1c0,0.5-0.4,1-1,1H37.2
			l1.2-1.6c3.8-4.9,2.6-12.2-2.5-16.1c-1.9-1.5-4.3-2.1-6.6-1.8c-2.4,0.3-4.5,1.5-5.9,3.4c-1.1,1.5-1.6,3.3-1.4,5.1
			c0.2,1.8,1.2,3.5,2.7,4.6c1.1,0.9,2.5,1.2,3.9,1.1c1.4-0.2,2.7-0.9,3.5-2c1.4-1.8,1-4.3-0.8-5.7c-0.4-0.3-0.5-1-0.2-1.4
			c0.3-0.4,1-0.5,1.4-0.2c2.6,2,3.1,5.8,1.1,8.5c-1.2,1.6-2.9,2.5-4.8,2.8c-1.9,0.3-3.9-0.3-5.4-1.4c-1.9-1.5-3.1-3.6-3.4-5.9
			c-0.3-2.4,0.3-4.7,1.8-6.6c1.8-2.3,4.4-3.8,7.3-4.2C29.5,426.9,29.9,426.9,30.4,426.9z"/>
	</g>
	<g>
		<path class="st0" d="M285.1,409.7c0,0.5,0,1,0.1,1.5c0.4,2.9,1.9,5.5,4.2,7.3c1.9,1.5,4.2,2.1,6.6,1.8c2.4-0.3,4.5-1.5,5.9-3.4
			c1.2-1.6,1.7-3.5,1.4-5.4c-0.3-1.9-1.3-3.7-2.8-4.8c-2.6-2-6.4-1.5-8.5,1.1c-0.3,0.4-0.3,1.1,0.2,1.4c0.4,0.3,1.1,0.3,1.4-0.2
			c1.4-1.8,3.9-2.1,5.7-0.8c1.1,0.9,1.9,2.1,2,3.5c0.2,1.4-0.2,2.8-1.1,3.9c-1.1,1.5-2.8,2.4-4.6,2.7c-1.8,0.2-3.7-0.2-5.1-1.4
			c-1.9-1.5-3.1-3.6-3.4-5.9c-0.3-2.4,0.3-4.7,1.8-6.6c3.9-5,11.1-6,16.1-2.1c0.4,0.3,1.1,0.3,1.4-0.2c0.3-0.4,0.3-1.1-0.2-1.4
			c-5.9-4.5-14.4-3.4-18.9,2.5C285.9,405,285.1,407.3,285.1,409.7z"/>
	</g>
	<g>
		<path class="st0" d="M285.1,30.4c0,2.4,0.8,4.7,2.3,6.6c4.2,5.5,11.7,7.1,17.3,3.9v360.4c0,0.5,0.4,1,1,1c0.5,0,1-0.4,1-1V37.2
			l-1.6,1.2c-4.9,3.8-12.2,2.6-16.1-2.5c-1.5-1.9-2.1-4.3-1.8-6.6c0.3-2.4,1.5-4.5,3.4-5.9c1.5-1.1,3.3-1.6,5.1-1.4
			c1.8,0.2,3.5,1.2,4.6,2.7c0.9,1.1,1.2,2.5,1.1,3.9c-0.2,1.4-0.9,2.7-2,3.5c-1.8,1.4-4.3,1-5.7-0.8c-0.3-0.4-1-0.5-1.4-0.2
			c-0.4,0.3-0.5,1-0.2,1.4c2,2.6,5.8,3.1,8.5,1.1c1.6-1.2,2.5-2.9,2.8-4.8c0.3-1.9-0.3-3.9-1.4-5.4c-1.5-1.9-3.6-3.1-5.9-3.4
			c-2.4-0.3-4.7,0.3-6.6,1.8c-2.3,1.8-3.8,4.4-4.2,7.3C285.1,29.5,285.1,29.9,285.1,30.4z"/>
	</g>
	<g>
		<path class="st0" d="M21.6,38.7c0-0.5,0-1-0.1-1.5c-0.4-2.9-1.9-5.5-4.2-7.3c-1.9-1.5-4.2-2.1-6.6-1.8c-2.4,0.3-4.5,1.5-5.9,3.4
			c-1.2,1.6-1.7,3.5-1.4,5.4c0.3,1.9,1.3,3.7,2.8,4.9c2.6,2,6.4,1.5,8.5-1.1c0.3-0.4,0.3-1.1-0.2-1.4c-0.4-0.3-1.1-0.3-1.4,0.2
			c-1.4,1.8-3.9,2.1-5.7,0.7c-1.1-0.9-1.9-2.1-2-3.5c-0.2-1.4,0.2-2.8,1.1-3.9c1.1-1.5,2.8-2.4,4.6-2.7c1.8-0.2,3.7,0.2,5.1,1.4
			c1.9,1.5,3.1,3.6,3.4,5.9c0.3,2.4-0.3,4.7-1.8,6.6c-3.9,5-11.1,6-16.1,2.1C1.2,46,0.5,46,0.2,46.5c-0.3,0.4-0.3,1.1,0.2,1.4
			c5.9,4.5,14.4,3.4,18.9-2.5C20.8,43.4,21.6,41.1,21.6,38.7z"/>
	</g>
	<g>
		<path class="st0" d="M21.6,418c0-2.4-0.8-4.7-2.3-6.6c-4.2-5.5-11.7-7.1-17.3-3.9V47.1c0-0.5-0.4-1-1-1s-1,0.4-1,1v364.2l1.6-1.2
			c4.9-3.8,12.2-2.6,16.1,2.5c1.5,1.9,2.1,4.3,1.8,6.6c-0.3,2.4-1.5,4.5-3.4,5.9c-1.5,1.1-3.3,1.6-5.1,1.4c-1.8-0.2-3.5-1.2-4.6-2.7
			c-0.9-1.1-1.2-2.5-1.1-3.9c0.2-1.4,0.9-2.7,2-3.5c1.8-1.4,4.3-1,5.7,0.7c0.3,0.4,1,0.5,1.4,0.2c0.4-0.3,0.5-1,0.2-1.4
			c-2-2.6-5.8-3.1-8.5-1.1c-1.6,1.2-2.5,2.9-2.8,4.9c-0.3,1.9,0.3,3.9,1.4,5.4c1.5,1.9,3.6,3.1,5.9,3.4c2.4,0.3,4.7-0.3,6.6-1.8
			c2.3-1.8,3.8-4.4,4.2-7.3C21.6,419,21.6,418.5,21.6,418z"/>
	</g>
</g>
</svg>
